<svg width="46" height="46" viewBox="0 0 26 26" fill="none" xmlns="http://www.w3.org/2000/svg">
<path d="M13 25.3214C19.8049 25.3214 25.3214 19.8049 25.3214 13C25.3214 6.19505 19.8049 0.678558 13 0.678558C6.19504 0.678558 0.678543 6.19505 0.678543 13C0.678543 19.8049 6.19504 25.3214 13 25.3214Z" fill="url(#paint0_linear_127_3)"/>
<path d="M18.3906 17.9087L14.2222 7.83789C13.9887 7.31622 13.6359 7.06284 13.1788 7.06284H12.8112C12.3491 7.06284 12.0013 7.31622 11.7678 7.83789L9.9544 12.2249H8.58314C8.17574 12.2299 7.83789 12.5578 7.83789 12.9702V12.9801C7.84286 13.3875 8.17574 13.7254 8.58314 13.7254H9.31845L7.58948 17.9087C7.55967 18.0031 7.53979 18.0975 7.53979 18.1968C7.53979 18.4304 7.61432 18.6142 7.7435 18.7583C7.87267 18.9023 8.06147 18.9719 8.29498 18.9719C8.449 18.9669 8.59805 18.9222 8.72225 18.8278C8.8564 18.7334 8.94583 18.6042 9.02035 18.4502L10.9282 13.7254H12.2498C12.6572 13.7204 12.995 13.3925 12.995 12.9801V12.9602C12.99 12.5528 12.6572 12.215 12.2498 12.215H11.5443L13 8.59308L16.9647 18.4502C17.0392 18.6042 17.1287 18.7384 17.2628 18.8278C17.387 18.9222 17.541 18.9669 17.6901 18.9719C17.9236 18.9719 18.1074 18.9023 18.2416 18.7583C18.3757 18.6142 18.4453 18.4304 18.4453 18.1968C18.4453 18.0975 18.4304 17.9981 18.3906 17.9087V17.9087Z" fill="white"/>
<defs>
<linearGradient id="paint0_linear_127_3" x1="22.1877" y1="5.27043" x2="3.85285" y2="20.6969" gradientUnits="userSpaceOnUse">
<stop stop-color="#B6509E"/>
<stop offset="1" stop-color="#2EBAC6"/>
</linearGradient>
</defs>
</svg>
