<svg width="46" height="46" viewBox="0 0 24 24" fill="none" xmlns="http://www.w3.org/2000/svg">
<path d="M7.69274 10.2303L12 5.92308L16.3093 10.2322L18.8155 7.72602L12 0.910721L5.18674 7.72398L7.69283 10.2302L7.69274 10.2303ZM0.910713 12L3.41698 9.49338L5.92307 11.9995L3.4168 14.5057L0.910713 12ZM7.69274 13.7699L12 18.0769L16.3092 13.7679L18.8167 16.2728L18.8155 16.2741L12 23.0893L5.18319 16.2725L7.69301 13.7697L7.69274 13.7699ZM18.0769 12.0011L20.5832 9.4948L23.0893 12.0009L20.5831 14.5072L18.0769 12.0011Z" fill="#F3BA2F"/>
<path d="M14.5418 11.9987H14.5429L12 9.4556L10.1204 11.3347L9.90448 11.5507L9.45913 11.9961L9.45558 11.9996L9.45913 12.0032L12 14.5444L14.5431 12.0013L14.5443 11.9999L14.542 11.9987" fill="#F3BA2F"/>
</svg>
