<svg width="46" height="46" viewBox="0 0 20 32" fill="none" xmlns="http://www.w3.org/2000/svg">
<path fill-rule="evenodd" clip-rule="evenodd" d="M9.98441 23.8121L19.1899 18.0341L9.98441 31.3333V23.8121ZM11.3532 24.5641V26.9674L14.3011 22.7102L11.3532 24.5641Z" fill="#5A9DED"/>
<path fill-rule="evenodd" clip-rule="evenodd" d="M10.9265 11.8082L17.7222 15.653L17.0519 16.8378L10.2562 12.993L10.9265 11.8082Z" fill="#D895D3"/>
<path fill-rule="evenodd" clip-rule="evenodd" d="M9.98441 0.666656L19.1587 16.4574L9.98441 22.2437V0.666656ZM11.3373 5.72006V19.7903L17.3292 16.0111L11.3373 5.72006Z" fill="#FF9C92"/>
<path fill-rule="evenodd" clip-rule="evenodd" d="M10.0156 23.8121L0.810093 18.0341L10.0156 31.3333V23.8121ZM8.64676 24.5641V26.9674L5.69891 22.7102L8.64676 24.5641Z" fill="#53D3E0"/>
<path fill-rule="evenodd" clip-rule="evenodd" d="M8.78723 11.9365L1.99156 15.7813L2.66191 16.9661L9.45758 13.1213L8.78723 11.9365Z" fill="#A6E275"/>
<path fill-rule="evenodd" clip-rule="evenodd" d="M9.98441 0.666656L0.810093 16.4574L9.98441 22.2437V0.666656ZM8.63151 5.72006V19.7903L2.63967 16.0111L8.63151 5.72006Z" fill="#FFE94D"/>
</svg>
